<svg xmlns="http://www.w3.org/2000/svg" xmlns:xlink="http://www.w3.org/1999/xlink" version="1.1" data-diagram-type="CLASS" style="width:2591px;height:1477px;background:#FFFFFF;" width="2591px" height="1477px" viewBox="0 0 2591 1477" zoomAndPan="magnify" preserveAspectRatio="none" contentStyleType="text/css"><?plantuml 1.2026.8?><defs/><g font-family="sans-serif" lengthAdjust="spacing"><g class="title" data-source-line="1"><text x="1096.4" y="23.535" fill="#000" font-size="14" textLength="391.2" font-weight="700">Commerce, queue and storage types (C4 level 4, code)</text></g><!--cluster internal/sqlstore--><g class="cluster" data-qualified-name="internal.sqlstore" id="ent0001" data-source-line="7"><rect x="1724" y="616.788" width="324" height="214.42" fill="none" style="stroke:#000;stroke-width:1.5;" rx="2.5" ry="2.5"/><text x="1824.637" y="632.323" fill="#000" font-size="14" textLength="122.726" font-weight="700">internal/sqlstore</text></g><!--cluster internal/domain--><g class="cluster" data-qualified-name="internal.domain" id="ent0003" data-source-line="19"><rect x="2018" y="1158.088" width="246" height="305.35" fill="none" style="stroke:#000;stroke-width:1.5;" rx="2.5" ry="2.5"/><text x="2082.173" y="1173.623" fill="#000" font-size="14" textLength="117.653" font-weight="700">internal/domain</text></g><!--cluster internal/queue--><g class="cluster" data-qualified-name="internal.queue" id="ent0005" data-source-line="37"><rect x="2072" y="44.488" width="505" height="799.21" fill="none" style="stroke:#000;stroke-width:1.5;" rx="2.5" ry="2.5"/><text x="2270.523" y="60.023" fill="#000" font-size="14" textLength="107.953" font-weight="700">internal/queue</text></g><!--cluster internal/cloud--><g class="cluster" data-qualified-name="internal.cloud" id="ent0010" data-source-line="73"><rect x="7" y="289.418" width="1693" height="1091.58" fill="none" style="stroke:#000;stroke-width:1.5;" rx="2.5" ry="2.5"/><text x="801.851" y="304.953" fill="#000" font-size="14" textLength="103.298" font-weight="700">internal/cloud</text></g><!--class DB--><g class="entity" data-qualified-name="internal.sqlstore.DB" id="ent0002" data-source-line="8"><rect x="1740.41" y="651.788" width="291.18" height="163.418" fill="#F1F1F1" style="stroke:#181818;stroke-width:0.5;" rx="2.5" ry="2.5"/><ellipse cx="1872.48" cy="667.788" rx="11" ry="11" fill="#ADD1B2" style="stroke:#181818;stroke-width:1;"/><path d="M1874.953,673.931 Q1874.372,674.23 1873.733,674.38 Q1873.094,674.529 1872.389,674.529 Q1869.882,674.529 1868.562,672.877 Q1867.242,671.225 1867.242,668.104 Q1867.242,664.975 1868.562,663.323 Q1869.882,661.671 1872.389,661.671 Q1873.094,661.671 1873.742,661.821 Q1874.389,661.97 1874.953,662.269 L1874.953,664.991 Q1874.323,664.41 1873.729,664.141 Q1873.136,663.871 1872.505,663.871 Q1871.16,663.871 1870.475,664.937 Q1869.79,666.004 1869.79,668.104 Q1869.79,670.196 1870.475,671.263 Q1871.16,672.329 1872.505,672.329 Q1873.136,672.329 1873.729,672.06 Q1874.323,671.79 1874.953,671.209 Z " fill="#000"/><text x="1892.98" y="673.079" fill="#000" font-size="14" textLength="18.539">DB</text><line x1="1741.41" y1="683.788" x2="2030.59" y2="683.788" style="stroke:#181818;stroke-width:0.5;"/><text x="1746.41" y="701.323" fill="#000" font-size="14" textLength="112.684">-engine : Engine</text><text x="1746.41" y="717.812" fill="#000" font-size="14" textLength="101.158">-pool : *sql.DB</text><text x="1746.41" y="734.3" fill="#000" font-size="14" textLength="192.281">-sealer : *securestore.Sealer</text><text x="1746.41" y="750.788" fill="#000" font-size="14" textLength="110.202">-version : string</text><line x1="1741.41" y1="757.741" x2="2030.59" y2="757.741" style="stroke:#181818;stroke-width:0.5;"/><text x="1746.41" y="775.277" fill="#000" font-size="14" textLength="279.18">+WithTx(ctx, fn func(*sql.Tx) error) error</text><text x="1746.41" y="791.765" fill="#000" font-size="14" textLength="130.573">+Migrate(ctx) error</text><text x="1746.41" y="808.253" fill="#000" font-size="14" textLength="103.359">+Pool() *sql.DB</text></g><!--class Command--><g class="entity" data-qualified-name="internal.domain.Command" id="ent0004" data-source-line="20"><rect x="2034.29" y="1193.088" width="213.428" height="254.348" fill="#F1F1F1" style="stroke:#181818;stroke-width:0.5;" rx="2.5" ry="2.5"/><ellipse cx="2101.925" cy="1209.088" rx="11" ry="11" fill="#ADD1B2" style="stroke:#181818;stroke-width:1;"/><path d="M2104.398,1215.231 Q2103.817,1215.53 2103.178,1215.68 Q2102.539,1215.829 2101.833,1215.829 Q2099.326,1215.829 2098.006,1214.177 Q2096.686,1212.525 2096.686,1209.404 Q2096.686,1206.275 2098.006,1204.623 Q2099.326,1202.971 2101.833,1202.971 Q2102.539,1202.971 2103.186,1203.121 Q2103.833,1203.27 2104.398,1203.569 L2104.398,1206.291 Q2103.767,1205.71 2103.174,1205.441 Q2102.58,1205.171 2101.949,1205.171 Q2100.604,1205.171 2099.92,1206.237 Q2099.235,1207.304 2099.235,1209.404 Q2099.235,1211.496 2099.92,1212.563 Q2100.604,1213.629 2101.949,1213.629 Q2102.58,1213.629 2103.174,1213.36 Q2103.767,1213.09 2104.398,1212.509 Z " fill="#000"/><text x="2122.425" y="1214.379" fill="#000" font-size="14" textLength="69.658">Command</text><line x1="2035.29" y1="1225.088" x2="2246.718" y2="1225.088" style="stroke:#181818;stroke-width:0.5;"/><text x="2040.29" y="1242.623" fill="#000" font-size="14" textLength="78.504">+ID : string</text><text x="2040.29" y="1259.112" fill="#000" font-size="14" textLength="107.386">+Action : string</text><text x="2040.29" y="1275.6" fill="#000" font-size="14" textLength="100.379">+Actor : string</text><text x="2040.29" y="1292.088" fill="#000" font-size="14" textLength="120.347">+ServerID : string</text><text x="2040.29" y="1308.577" fill="#000" font-size="14" textLength="108.063">+Target : string</text><text x="2040.29" y="1325.065" fill="#000" font-size="14" textLength="161.164">+State : CommandState</text><text x="2040.29" y="1341.553" fill="#000" font-size="14" textLength="106.128">+Attempt : uint</text><text x="2040.29" y="1358.041" fill="#000" font-size="14" textLength="141.641">+MaxAttempts : uint</text><text x="2040.29" y="1374.53" fill="#000" font-size="14" textLength="121.591">+AutoRetry : bool</text><text x="2040.29" y="1391.018" fill="#000" font-size="14" textLength="172.84">+AuthorityEpoch : uint64</text><text x="2040.29" y="1407.506" fill="#000" font-size="14" textLength="201.428">+NextAttemptAt : *time.Time</text><text x="2040.29" y="1423.995" fill="#000" font-size="14" textLength="144.43">+FailureCode : string</text><text x="2040.29" y="1440.483" fill="#000" font-size="14" textLength="172.676">+FailureSummary : string</text></g><!--class SubmitInput--><g class="entity" data-qualified-name="internal.queue.SubmitInput" id="ent0006" data-source-line="38"><rect x="2088.21" y="639.298" width="187.574" height="188.395" fill="#F1F1F1" style="stroke:#181818;stroke-width:0.5;" rx="2.5" ry="2.5"/><ellipse cx="2136.321" cy="655.298" rx="11" ry="11" fill="#ADD1B2" style="stroke:#181818;stroke-width:1;"/><path d="M2138.794,661.441 Q2138.213,661.74 2137.574,661.89 Q2136.935,662.039 2136.23,662.039 Q2133.723,662.039 2132.403,660.387 Q2131.083,658.735 2131.083,655.614 Q2131.083,652.485 2132.403,650.833 Q2133.723,649.181 2136.23,649.181 Q2136.935,649.181 2137.583,649.331 Q2138.23,649.48 2138.794,649.779 L2138.794,652.501 Q2138.164,651.92 2137.57,651.651 Q2136.977,651.381 2136.346,651.381 Q2135.001,651.381 2134.316,652.447 Q2133.631,653.514 2133.631,655.614 Q2133.631,657.706 2134.316,658.773 Q2135.001,659.839 2136.346,659.839 Q2136.977,659.839 2137.57,659.57 Q2138.164,659.3 2138.794,658.719 Z " fill="#000"/><text x="2156.821" y="660.589" fill="#000" font-size="14" textLength="82.852">SubmitInput</text><line x1="2089.21" y1="671.298" x2="2274.784" y2="671.298" style="stroke:#181818;stroke-width:0.5;"/><text x="2094.21" y="688.833" fill="#000" font-size="14" textLength="107.386">+Action : string</text><text x="2094.21" y="705.322" fill="#000" font-size="14" textLength="100.379">+Actor : string</text><text x="2094.21" y="721.81" fill="#000" font-size="14" textLength="120.347">+ServerID : string</text><text x="2094.21" y="738.298" fill="#000" font-size="14" textLength="108.063">+Target : string</text><text x="2094.21" y="754.787" fill="#000" font-size="14" textLength="175.574">+IdempotencyKey : string</text><text x="2094.21" y="771.275" fill="#000" font-size="14" textLength="114.659">+Payload : []byte</text><text x="2094.21" y="787.763" fill="#000" font-size="14" textLength="141.641">+MaxAttempts : uint</text><text x="2094.21" y="804.251" fill="#000" font-size="14" textLength="121.591">+AutoRetry : bool</text><text x="2094.21" y="820.74" fill="#000" font-size="14" textLength="172.84">+AuthorityEpoch : uint64</text></g><!--class Submission--><g class="entity" data-qualified-name="internal.queue.Submission" id="ent0007" data-source-line="49"><rect x="2311.26" y="688.768" width="249.487" height="89.465" fill="#F1F1F1" style="stroke:#181818;stroke-width:0.5;" rx="2.5" ry="2.5"/><ellipse cx="2392.871" cy="704.768" rx="11" ry="11" fill="#ADD1B2" style="stroke:#181818;stroke-width:1;"/><path d="M2395.344,710.911 Q2394.763,711.21 2394.124,711.36 Q2393.485,711.509 2392.779,711.509 Q2390.272,711.509 2388.952,709.857 Q2387.633,708.205 2387.633,705.084 Q2387.633,701.955 2388.952,700.303 Q2390.272,698.651 2392.779,698.651 Q2393.485,698.651 2394.132,698.801 Q2394.78,698.95 2395.344,699.249 L2395.344,701.971 Q2394.713,701.39 2394.12,701.121 Q2393.526,700.851 2392.895,700.851 Q2391.551,700.851 2390.866,701.917 Q2390.181,702.984 2390.181,705.084 Q2390.181,707.176 2390.866,708.243 Q2391.551,709.309 2392.895,709.309 Q2393.526,709.309 2394.12,709.04 Q2394.713,708.77 2395.344,708.189 Z " fill="#000"/><text x="2413.371" y="710.059" fill="#000" font-size="14" textLength="77.766">Submission</text><line x1="2312.26" y1="720.768" x2="2559.747" y2="720.768" style="stroke:#181818;stroke-width:0.5;"/><text x="2317.26" y="738.303" fill="#000" font-size="14" textLength="219.112">+Command : domain.Command</text><text x="2317.26" y="754.792" fill="#000" font-size="14" textLength="107.27">+Created : bool</text><text x="2317.26" y="771.28" fill="#000" font-size="14" textLength="237.487">+Superseded : []domain.Command</text></g><!--class Store--><g class="entity" data-qualified-name="internal.queue.Store" id="ent0008" data-source-line="54"><rect x="2087.77" y="357.398" width="436.45" height="163.418" fill="#F1F1F1" style="stroke:#181818;stroke-width:0.5;" rx="2.5" ry="2.5"/><ellipse cx="2284.293" cy="373.398" rx="11" ry="11" fill="#ADD1B2" style="stroke:#181818;stroke-width:1;"/><path d="M2286.766,379.541 Q2286.185,379.84 2285.546,379.99 Q2284.907,380.139 2284.201,380.139 Q2281.694,380.139 2280.374,378.487 Q2279.055,376.835 2279.055,373.714 Q2279.055,370.585 2280.374,368.933 Q2281.694,367.281 2284.201,367.281 Q2284.907,367.281 2285.554,367.431 Q2286.202,367.58 2286.766,367.879 L2286.766,370.601 Q2286.135,370.02 2285.542,369.751 Q2284.948,369.481 2284.317,369.481 Q2282.973,369.481 2282.288,370.547 Q2281.603,371.614 2281.603,373.714 Q2281.603,375.806 2282.288,376.873 Q2282.973,377.939 2284.317,377.939 Q2284.948,377.939 2285.542,377.67 Q2286.135,377.4 2286.766,376.819 Z " fill="#000"/><text x="2304.793" y="378.689" fill="#000" font-size="14" textLength="34.904">Store</text><line x1="2088.77" y1="389.398" x2="2523.22" y2="389.398" style="stroke:#181818;stroke-width:0.5;"/><text x="2093.77" y="406.933" fill="#000" font-size="14" textLength="123.225">-db : *sqlstore.DB</text><text x="2093.77" y="423.422" fill="#000" font-size="14" textLength="192.281">-sealer : *securestore.Sealer</text><text x="2093.77" y="439.91" fill="#000" font-size="14" textLength="119.978">-historyLimit : int</text><line x1="2088.77" y1="446.863" x2="2523.22" y2="446.863" style="stroke:#181818;stroke-width:0.5;"/><text x="2093.77" y="464.398" fill="#000" font-size="14" textLength="424.45">+SubmitInTx(ctx, tx, SubmitInput) (Submission, []string, error)</text><text x="2093.77" y="480.887" fill="#000" font-size="14" textLength="227.65">+ClaimDue() (Record, bool, error)</text><text x="2093.77" y="497.375" fill="#000" font-size="14" textLength="313.981">+Fail(id, err) (domain.Command, string, error)</text><text x="2093.77" y="513.863" fill="#000" font-size="14" textLength="179.525">+ForgetInputs(ids []string)</text></g><!--class Worker--><g class="entity" data-qualified-name="internal.queue.Worker" id="ent0009" data-source-line="63"><rect x="2095.41" y="79.488" width="421.172" height="146.93" fill="#F1F1F1" style="stroke:#181818;stroke-width:0.5;" rx="2.5" ry="2.5"/><ellipse cx="2277.738" cy="95.488" rx="11" ry="11" fill="#ADD1B2" style="stroke:#181818;stroke-width:1;"/><path d="M2280.211,101.631 Q2279.63,101.93 2278.991,102.08 Q2278.352,102.229 2277.646,102.229 Q2275.139,102.229 2273.82,100.577 Q2272.5,98.925 2272.5,95.804 Q2272.5,92.675 2273.82,91.023 Q2275.139,89.371 2277.646,89.371 Q2278.352,89.371 2278.999,89.521 Q2279.647,89.67 2280.211,89.969 L2280.211,92.691 Q2279.58,92.11 2278.987,91.841 Q2278.393,91.571 2277.763,91.571 Q2276.418,91.571 2275.733,92.637 Q2275.048,93.704 2275.048,95.804 Q2275.048,97.896 2275.733,98.963 Q2276.418,100.029 2277.763,100.029 Q2278.393,100.029 2278.987,99.76 Q2279.58,99.49 2280.211,98.909 Z " fill="#000"/><text x="2298.238" y="100.779" fill="#000" font-size="14" textLength="48.016">Worker</text><line x1="2096.41" y1="111.488" x2="2515.582" y2="111.488" style="stroke:#181818;stroke-width:0.5;"/><text x="2101.41" y="129.023" fill="#000" font-size="14" textLength="162.21">+Execute : ExecuteFunc</text><text x="2101.41" y="145.512" fill="#000" font-size="14" textLength="213.548">+OnTransition : TransitionFunc</text><text x="2101.41" y="162" fill="#000" font-size="14" textLength="193.149">+PollInterval : time.Duration</text><text x="2101.41" y="178.488" fill="#000" font-size="14" textLength="100.974">+Store : *Store</text><line x1="2096.41" y1="185.441" x2="2515.582" y2="185.441" style="stroke:#181818;stroke-width:0.5;"/><text x="2101.41" y="202.977" fill="#000" font-size="14" textLength="176.682">+CanExecute : func() bool</text><text x="2101.41" y="219.465" fill="#000" font-size="14" textLength="409.172">+ExecutionTimeout : func(domain.Command) time.Duration</text></g><!--class CommandQueue--><g class="entity" data-qualified-name="internal.cloud.CommandQueue" id="ent0011" data-source-line="74"><rect x="936.56" y="697.008" width="528.886" height="72.977" fill="#F1F1F1" style="stroke:#181818;stroke-width:0.5;" rx="2.5" ry="2.5"/><ellipse cx="1139.998" cy="713.008" rx="11" ry="11" fill="#B4A7E5" style="stroke:#181818;stroke-width:1;"/><path d="M1136.425,709.273 L1136.425,707.115 L1143.805,707.115 L1143.805,709.273 L1141.339,709.273 L1141.339,717.35 L1143.805,717.35 L1143.805,719.508 L1136.425,719.508 L1136.425,717.35 L1138.891,717.35 L1138.891,709.273 Z " fill="#000"/><text x="1160.498" y="718.299" fill="#000" font-size="14" textLength="113.511" font-style="italic">CommandQueue</text><line x1="937.56" y1="729.008" x2="1464.446" y2="729.008" style="stroke:#181818;stroke-width:0.5;"/><text x="942.56" y="746.543" fill="#000" font-size="14" textLength="516.886">+SubmitInTx(ctx, tx, queue.SubmitInput) (queue.Submission, []string, error)</text><text x="942.56" y="763.032" fill="#000" font-size="14" textLength="179.525">+ForgetInputs(ids []string)</text></g><!--class Provisioner--><g class="entity" data-qualified-name="internal.cloud.Provisioner" id="ent0012" data-source-line="78"><rect x="22.94" y="697.008" width="204.11" height="72.977" fill="#F1F1F1" style="stroke:#181818;stroke-width:0.5;" rx="2.5" ry="2.5"/><ellipse cx="83.065" cy="713.008" rx="11" ry="11" fill="#B4A7E5" style="stroke:#181818;stroke-width:1;"/><path d="M79.493,709.273 L79.493,707.115 L86.873,707.115 L86.873,709.273 L84.407,709.273 L84.407,717.35 L86.873,717.35 L86.873,719.508 L79.493,719.508 L79.493,717.35 L81.959,717.35 L81.959,709.273 Z " fill="#000"/><text x="103.565" y="718.299" fill="#000" font-size="14" textLength="75.359" font-style="italic">Provisioner</text><line x1="23.94" y1="729.008" x2="226.05" y2="729.008" style="stroke:#181818;stroke-width:0.5;"/><text x="28.94" y="746.543" fill="#000" font-size="14" textLength="192.11">+Suspend(ctx, Project) error</text><text x="28.94" y="763.032" fill="#000" font-size="14" textLength="187.981">+Resume(ctx, Project) error</text></g><!--class Options--><g class="entity" data-qualified-name="internal.cloud.Options" id="ent0013" data-source-line="82"><rect x="261.84" y="651.788" width="206.325" height="163.418" fill="#F1F1F1" style="stroke:#181818;stroke-width:0.5;" rx="2.5" ry="2.5"/><ellipse cx="334.055" cy="667.788" rx="11" ry="11" fill="#ADD1B2" style="stroke:#181818;stroke-width:1;"/><path d="M336.528,673.931 Q335.947,674.23 335.308,674.38 Q334.669,674.529 333.963,674.529 Q331.456,674.529 330.136,672.877 Q328.817,671.225 328.817,668.104 Q328.817,664.975 330.136,663.323 Q331.456,661.671 333.963,661.671 Q334.669,661.671 335.316,661.821 Q335.964,661.97 336.528,662.269 L336.528,664.991 Q335.897,664.41 335.304,664.141 Q334.71,663.871 334.079,663.871 Q332.735,663.871 332.05,664.937 Q331.365,666.004 331.365,668.104 Q331.365,670.196 332.05,671.263 Q332.735,672.329 334.079,672.329 Q334.71,672.329 335.304,672.06 Q335.897,671.79 336.528,671.209 Z " fill="#000"/><text x="354.555" y="673.079" fill="#000" font-size="14" textLength="53.396">Options</text><line x1="262.84" y1="683.788" x2="467.165" y2="683.788" style="stroke:#181818;stroke-width:0.5;"/><text x="267.84" y="701.323" fill="#000" font-size="14" textLength="115.363">+BcryptCost : int</text><text x="267.84" y="717.812" fill="#000" font-size="14" textLength="194.325">+SessionTTL : time.Duration</text><text x="267.84" y="734.3" fill="#000" font-size="14" textLength="152.899">+ReserveHours : int64</text><text x="267.84" y="750.788" fill="#000" font-size="14" textLength="130.676">+TaxRateBP : int64</text><text x="267.84" y="767.277" fill="#000" font-size="14" textLength="154.342">+MinTopUpRial : int64</text><text x="267.84" y="783.765" fill="#000" font-size="14" textLength="157.924">+MaxTopUpRial : int64</text><line x1="262.84" y1="790.718" x2="467.165" y2="790.718" style="stroke:#181818;stroke-width:0.5;"/><text x="267.84" y="808.253" fill="#000" font-size="14" textLength="165.73">+Now : func() time.Time</text></g><!--class Service--><g class="entity" data-qualified-name="internal.cloud.Service" id="ent0014" data-source-line="91"><rect x="368.02" y="324.418" width="671.962" height="229.371" fill="#F1F1F1" style="stroke:#181818;stroke-width:0.5;" rx="2.5" ry="2.5"/><ellipse cx="676.085" cy="340.418" rx="11" ry="11" fill="#ADD1B2" style="stroke:#181818;stroke-width:1;"/><path d="M678.558,346.561 Q677.977,346.86 677.338,347.01 Q676.699,347.159 675.993,347.159 Q673.486,347.159 672.166,345.507 Q670.847,343.855 670.847,340.734 Q670.847,337.605 672.166,335.953 Q673.486,334.301 675.993,334.301 Q676.699,334.301 677.346,334.451 Q677.994,334.6 678.558,334.899 L678.558,337.621 Q677.927,337.04 677.334,336.771 Q676.74,336.501 676.109,336.501 Q674.765,336.501 674.08,337.567 Q673.395,338.634 673.395,340.734 Q673.395,342.826 674.08,343.893 Q674.765,344.959 676.109,344.959 Q676.74,344.959 677.334,344.69 Q677.927,344.42 678.558,343.839 Z " fill="#000"/><text x="696.585" y="345.709" fill="#000" font-size="14" textLength="47.332">Service</text><line x1="369.02" y1="356.418" x2="1038.982" y2="356.418" style="stroke:#181818;stroke-width:0.5;"/><text x="374.02" y="373.953" fill="#000" font-size="14" textLength="209.18">-commands : CommandQueue</text><text x="374.02" y="390.442" fill="#000" font-size="14" textLength="123.225">-db : *sqlstore.DB</text><text x="374.02" y="406.93" fill="#000" font-size="14" textLength="125.904">-options : Options</text><text x="374.02" y="423.418" fill="#000" font-size="14" textLength="173.182">-provisioner : Provisioner</text><line x1="369.02" y1="430.371" x2="1038.982" y2="430.371" style="stroke:#181818;stroke-width:0.5;"/><text x="374.02" y="447.907" fill="#000" font-size="14" textLength="345.577">+PlaceOrder(ctx, userID, OrderInput) (Order, error)</text><text x="374.02" y="464.395" fill="#000" font-size="14" textLength="659.962">+ConfirmOrder(ctx, reviewer, orderID, ProvisionTarget) (Order, Project, domain.Command, error)</text><text x="374.02" y="480.883" fill="#000" font-size="14" textLength="371.116">+OnCommandTransition(ctx, domain.Command) error</text><text x="374.02" y="497.371" fill="#000" font-size="14" textLength="455.663">+TopUp(ctx, userID, amount, idempotencyKey) (Transaction, error)</text><text x="374.02" y="513.86" fill="#000" font-size="14" textLength="248.514">+RunBilling(ctx) (BillingResult, error)</text><text x="374.02" y="530.348" fill="#000" font-size="14" textLength="257.838">+IssueInvoices(ctx, month) (int, error)</text><text x="374.02" y="546.836" fill="#000" font-size="14" textLength="336.957">-applyTx(ctx, tx, ledgerEntry) (Transaction, error)</text></g><!--class ledgerEntry--><g class="entity" data-qualified-name="internal.cloud.ledgerEntry" id="ent0015" data-source-line="104"><rect x="502.72" y="643.238" width="184.56" height="180.527" fill="#F1F1F1" style="stroke:#181818;stroke-width:0.5;" rx="2.5" ry="2.5"/><ellipse cx="552.014" cy="663.549" rx="11" ry="11" fill="#ADD1B2" style="stroke:#181818;stroke-width:1;"/><path d="M554.487,669.692 Q553.906,669.991 553.267,670.14 Q552.628,670.29 551.922,670.29 Q549.415,670.29 548.095,668.638 Q546.776,666.986 546.776,663.865 Q546.776,660.735 548.095,659.083 Q549.415,657.432 551.922,657.432 Q552.628,657.432 553.275,657.581 Q553.923,657.73 554.487,658.029 L554.487,660.752 Q553.856,660.171 553.263,659.901 Q552.669,659.631 552.038,659.631 Q550.694,659.631 550.009,660.698 Q549.324,661.765 549.324,663.865 Q549.324,665.957 550.009,667.023 Q550.694,668.09 552.038,668.09 Q552.669,668.09 553.263,667.82 Q553.856,667.55 554.487,666.969 Z " fill="#000"/><text x="571.213" y="659.84" fill="#000" font-size="12" textLength="80.074" font-style="italic">«unexported»</text><text x="572.514" y="675.906" fill="#000" font-size="14" textLength="77.472">ledgerEntry</text><line x1="503.72" y1="683.859" x2="686.28" y2="683.859" style="stroke:#181818;stroke-width:0.5;"/><text x="508.72" y="701.395" fill="#000" font-size="14" textLength="109.628">-userID : uint64</text><text x="508.72" y="717.883" fill="#000" font-size="14" textLength="109.081">-amount : int64</text><text x="508.72" y="734.371" fill="#000" font-size="14" textLength="90.686">-kind : string</text><text x="508.72" y="750.859" fill="#000" font-size="14" textLength="172.56">-idempotencyKey : string</text><text x="508.72" y="767.348" fill="#000" font-size="14" textLength="157.397">-referenceType : string</text><text x="508.72" y="783.836" fill="#000" font-size="14" textLength="143.938">-referenceID : uint64</text><text x="508.72" y="800.324" fill="#000" font-size="14" textLength="137.033">-description : string</text><text x="508.72" y="816.813" fill="#000" font-size="14" textLength="131.4">-createdBy : uint64</text></g><!--class Wallet--><g class="entity" data-qualified-name="internal.cloud.Wallet" id="ent0016" data-source-line="114"><rect x="506.72" y="1275.528" width="176.568" height="89.465" fill="#F1F1F1" style="stroke:#181818;stroke-width:0.5;" rx="2.5" ry="2.5"/><ellipse cx="570.335" cy="1291.528" rx="11" ry="11" fill="#ADD1B2" style="stroke:#181818;stroke-width:1;"/><path d="M572.808,1297.671 Q572.227,1297.97 571.588,1298.12 Q570.949,1298.269 570.243,1298.269 Q567.737,1298.269 566.417,1296.617 Q565.097,1294.965 565.097,1291.844 Q565.097,1288.715 566.417,1287.063 Q567.737,1285.411 570.243,1285.411 Q570.949,1285.411 571.596,1285.561 Q572.244,1285.71 572.808,1286.009 L572.808,1288.731 Q572.178,1288.15 571.584,1287.881 Q570.991,1287.611 570.36,1287.611 Q569.015,1287.611 568.33,1288.677 Q567.645,1289.744 567.645,1291.844 Q567.645,1293.936 568.33,1295.003 Q569.015,1296.069 570.36,1296.069 Q570.991,1296.069 571.584,1295.8 Q572.178,1295.53 572.808,1294.949 Z " fill="#000"/><text x="590.835" y="1296.819" fill="#000" font-size="14" textLength="40.838">Wallet</text><line x1="507.72" y1="1307.528" x2="682.288" y2="1307.528" style="stroke:#181818;stroke-width:0.5;"/><text x="512.72" y="1325.063" fill="#000" font-size="14" textLength="113.668">+UserID : uint64</text><text x="512.72" y="1341.552" fill="#000" font-size="14" textLength="135.994">+BalanceRial : int64</text><text x="512.72" y="1358.04" fill="#000" font-size="14" textLength="164.568">+UpdatedAt : time.Time</text></g><!--class Transaction--><g class="entity" data-qualified-name="internal.cloud.Transaction" id="ent0017" data-source-line="119"><rect x="504.22" y="914.938" width="181.565" height="171.906" fill="#F1F1F1" style="stroke:#181818;stroke-width:0.5;" rx="2.5" ry="2.5"/><ellipse cx="550.947" cy="930.938" rx="11" ry="11" fill="#ADD1B2" style="stroke:#181818;stroke-width:1;"/><path d="M553.42,937.081 Q552.839,937.38 552.2,937.53 Q551.561,937.679 550.855,937.679 Q548.348,937.679 547.029,936.027 Q545.709,934.375 545.709,931.254 Q545.709,928.125 547.029,926.473 Q548.348,924.821 550.855,924.821 Q551.561,924.821 552.208,924.971 Q552.856,925.12 553.42,925.419 L553.42,928.141 Q552.789,927.56 552.196,927.291 Q551.602,927.021 550.971,927.021 Q549.627,927.021 548.942,928.087 Q548.257,929.154 548.257,931.254 Q548.257,933.346 548.942,934.413 Q549.627,935.479 550.971,935.479 Q551.602,935.479 552.196,935.21 Q552.789,934.94 553.42,934.359 Z " fill="#000"/><text x="571.447" y="936.229" fill="#000" font-size="14" textLength="79.611">Transaction</text><line x1="505.22" y1="946.938" x2="684.785" y2="946.938" style="stroke:#181818;stroke-width:0.5;"/><text x="510.22" y="964.473" fill="#000" font-size="14" textLength="83.303">+ID : uint64</text><text x="510.22" y="980.962" fill="#000" font-size="14" textLength="113.668">+UserID : uint64</text><text x="510.22" y="997.45" fill="#000" font-size="14" textLength="94.671">+Kind : string</text><text x="510.22" y="1013.938" fill="#000" font-size="14" textLength="138.715">+AmountRial : int64</text><text x="510.22" y="1030.427" fill="#000" font-size="14" textLength="169.565">+BalanceAfterRial : int64</text><text x="510.22" y="1046.915" fill="#000" font-size="14" textLength="163.55">+ReferenceType : string</text><text x="510.22" y="1063.403" fill="#000" font-size="14" textLength="150.09">+ReferenceID : uint64</text><text x="510.22" y="1079.891" fill="#000" font-size="14" textLength="141.736">+Description : string</text></g><!--class Order--><g class="entity" data-qualified-name="internal.cloud.Order" id="ent0018" data-source-line="129"><rect x="1505.05" y="361.398" width="173.909" height="155.418" fill="#F1F1F1" style="stroke:#181818;stroke-width:0.5;" rx="2.5" ry="2.5"/><ellipse cx="1568.282" cy="377.398" rx="11" ry="11" fill="#ADD1B2" style="stroke:#181818;stroke-width:1;"/><path d="M1570.756,383.541 Q1570.175,383.84 1569.535,383.99 Q1568.896,384.139 1568.191,384.139 Q1565.684,384.139 1564.364,382.487 Q1563.044,380.835 1563.044,377.714 Q1563.044,374.585 1564.364,372.933 Q1565.684,371.281 1568.191,371.281 Q1568.896,371.281 1569.544,371.431 Q1570.191,371.58 1570.756,371.879 L1570.756,374.601 Q1570.125,374.02 1569.531,373.751 Q1568.938,373.481 1568.307,373.481 Q1566.962,373.481 1566.277,374.547 Q1565.592,375.614 1565.592,377.714 Q1565.592,379.806 1566.277,380.873 Q1566.962,381.939 1568.307,381.939 Q1568.938,381.939 1569.531,381.67 Q1570.125,381.4 1570.756,380.819 Z " fill="#000"/><text x="1588.782" y="382.689" fill="#000" font-size="14" textLength="38.944">Order</text><line x1="1506.05" y1="393.398" x2="1677.959" y2="393.398" style="stroke:#181818;stroke-width:0.5;"/><text x="1511.05" y="410.933" fill="#000" font-size="14" textLength="83.303">+ID : uint64</text><text x="1511.05" y="427.422" fill="#000" font-size="14" textLength="113.668">+UserID : uint64</text><text x="1511.05" y="443.91" fill="#000" font-size="14" textLength="105.554">+Status : string</text><text x="1511.05" y="460.398" fill="#000" font-size="14" textLength="136.685">+UpfrontRial : int64</text><text x="1511.05" y="476.887" fill="#000" font-size="14" textLength="161.909">+CustomerNote : string</text><text x="1511.05" y="493.375" fill="#000" font-size="14" textLength="159.325">+ReviewReason : string</text><text x="1511.05" y="509.863" fill="#000" font-size="14" textLength="139.884">+Items : []OrderItem</text></g><!--class OrderItem--><g class="entity" data-qualified-name="internal.cloud.OrderItem" id="ent0019" data-source-line="138"><rect x="1500.06" y="655.788" width="183.89" height="155.418" fill="#F1F1F1" style="stroke:#181818;stroke-width:0.5;" rx="2.5" ry="2.5"/><ellipse cx="1553.213" cy="671.788" rx="11" ry="11" fill="#ADD1B2" style="stroke:#181818;stroke-width:1;"/><path d="M1555.686,677.931 Q1555.105,678.23 1554.466,678.38 Q1553.827,678.529 1553.121,678.529 Q1550.614,678.529 1549.294,676.877 Q1547.975,675.225 1547.975,672.104 Q1547.975,668.975 1549.294,667.323 Q1550.614,665.671 1553.121,665.671 Q1553.827,665.671 1554.474,665.821 Q1555.122,665.97 1555.686,666.269 L1555.686,668.991 Q1555.055,668.41 1554.462,668.141 Q1553.868,667.871 1553.237,667.871 Q1551.893,667.871 1551.208,668.937 Q1550.523,670.004 1550.523,672.104 Q1550.523,674.196 1551.208,675.263 Q1551.893,676.329 1553.237,676.329 Q1553.868,676.329 1554.462,676.06 Q1555.055,675.79 1555.686,675.209 Z " fill="#000"/><text x="1573.713" y="677.079" fill="#000" font-size="14" textLength="69.084">OrderItem</text><line x1="1501.06" y1="687.788" x2="1682.95" y2="687.788" style="stroke:#181818;stroke-width:0.5;"/><text x="1506.06" y="705.323" fill="#000" font-size="14" textLength="83.303">+ID : uint64</text><text x="1506.06" y="721.812" fill="#000" font-size="14" textLength="127.087">+PlanCode : string</text><text x="1506.06" y="738.3" fill="#000" font-size="14" textLength="130.211">+AppName : string</text><text x="1506.06" y="754.788" fill="#000" font-size="14" textLength="105.349">+Image : string</text><text x="1506.06" y="771.277" fill="#000" font-size="14" textLength="96.086">+Port : uint16</text><text x="1506.06" y="787.765" fill="#000" font-size="14" textLength="161.923">+HourlyPriceRial : int64</text><text x="1506.06" y="804.253" fill="#000" font-size="14" textLength="171.89">+MonthlyPriceRial : int64</text></g><!--class Project--><g class="entity" data-qualified-name="internal.cloud.Project" id="ent0020" data-source-line="147"><rect x="1498.41" y="906.698" width="185.188" height="188.395" fill="#F1F1F1" style="stroke:#181818;stroke-width:0.5;" rx="2.5" ry="2.5"/><ellipse cx="1563.488" cy="922.698" rx="11" ry="11" fill="#ADD1B2" style="stroke:#181818;stroke-width:1;"/><path d="M1565.961,928.841 Q1565.38,929.14 1564.741,929.29 Q1564.102,929.439 1563.396,929.439 Q1560.889,929.439 1559.57,927.787 Q1558.25,926.135 1558.25,923.014 Q1558.25,919.885 1559.57,918.233 Q1560.889,916.581 1563.396,916.581 Q1564.102,916.581 1564.749,916.731 Q1565.397,916.88 1565.961,917.179 L1565.961,919.901 Q1565.33,919.32 1564.737,919.051 Q1564.143,918.781 1563.513,918.781 Q1562.168,918.781 1561.483,919.847 Q1560.798,920.914 1560.798,923.014 Q1560.798,925.106 1561.483,926.173 Q1562.168,927.239 1563.513,927.239 Q1564.143,927.239 1564.737,926.97 Q1565.33,926.7 1565.961,926.119 Z " fill="#000"/><text x="1583.988" y="927.989" fill="#000" font-size="14" textLength="46.532">Project</text><line x1="1499.41" y1="938.698" x2="1682.598" y2="938.698" style="stroke:#181818;stroke-width:0.5;"/><text x="1504.41" y="956.233" fill="#000" font-size="14" textLength="83.303">+ID : uint64</text><text x="1504.41" y="972.722" fill="#000" font-size="14" textLength="113.668">+UserID : uint64</text><text x="1504.41" y="989.21" fill="#000" font-size="14" textLength="152.387">+OrderItemID : uint64</text><text x="1504.41" y="1005.698" fill="#000" font-size="14" textLength="130.211">+AppName : string</text><text x="1504.41" y="1022.187" fill="#000" font-size="14" textLength="120.347">+ServerID : string</text><text x="1504.41" y="1038.675" fill="#000" font-size="14" textLength="148.162">+CommandID : string</text><text x="1504.41" y="1055.163" fill="#000" font-size="14" textLength="105.554">+Status : string</text><text x="1504.41" y="1071.651" fill="#000" font-size="14" textLength="161.923">+HourlyPriceRial : int64</text><text x="1504.41" y="1088.14" fill="#000" font-size="14" textLength="173.188">+UsageThisMonth : int64</text></g><!--class Invoice--><g class="entity" data-qualified-name="internal.cloud.Invoice" id="ent0021" data-source-line="158"><rect x="722.52" y="639.298" width="178.968" height="188.395" fill="#F1F1F1" style="stroke:#181818;stroke-width:0.5;" rx="2.5" ry="2.5"/><ellipse cx="783.961" cy="655.298" rx="11" ry="11" fill="#ADD1B2" style="stroke:#181818;stroke-width:1;"/><path d="M786.435,661.441 Q785.853,661.74 785.214,661.89 Q784.575,662.039 783.87,662.039 Q781.363,662.039 780.043,660.387 Q778.723,658.735 778.723,655.614 Q778.723,652.485 780.043,650.833 Q781.363,649.181 783.87,649.181 Q784.575,649.181 785.223,649.331 Q785.87,649.48 786.435,649.779 L786.435,652.501 Q785.804,651.92 785.21,651.651 Q784.617,651.381 783.986,651.381 Q782.641,651.381 781.956,652.447 Q781.271,653.514 781.271,655.614 Q781.271,657.706 781.956,658.773 Q782.641,659.839 783.986,659.839 Q784.617,659.839 785.21,659.57 Q785.804,659.3 786.435,658.719 Z " fill="#000"/><text x="804.461" y="660.589" fill="#000" font-size="14" textLength="47.585">Invoice</text><line x1="723.52" y1="671.298" x2="900.488" y2="671.298" style="stroke:#181818;stroke-width:0.5;"/><text x="728.52" y="688.833" fill="#000" font-size="14" textLength="83.303">+ID : uint64</text><text x="728.52" y="705.322" fill="#000" font-size="14" textLength="113.668">+UserID : uint64</text><text x="728.52" y="721.81" fill="#000" font-size="14" textLength="118.426">+Number : string</text><text x="728.52" y="738.298" fill="#000" font-size="14" textLength="166.968">+PeriodStart : time.Time</text><text x="728.52" y="754.787" fill="#000" font-size="14" textLength="140.663">+SubtotalRial : int64</text><text x="728.52" y="771.275" fill="#000" font-size="14" textLength="130.676">+TaxRateBP : int64</text><text x="728.52" y="787.763" fill="#000" font-size="14" textLength="109.942">+TaxRial : int64</text><text x="728.52" y="804.251" fill="#000" font-size="14" textLength="119.239">+TotalRial : int64</text><text x="728.52" y="820.74" fill="#000" font-size="14" textLength="144.245">+Lines : []InvoiceLine</text></g><!--reverse link Service to Options--><g class="link" data-entity-1="ent0014" data-entity-2="ent0013" id="lnk22" data-source-line="171" data-link-type="aggregation"><path d="M540.655,561.669 C518.415,579.439 505.5,590.498 485,608.788 C470.04,622.138 454.69,636.968 440.18,651.598" style="stroke:#181818;stroke-width:1;" fill="none" id="Service-backto-Options" codeLine="171"/><polygon points="550.03,554.178,542.846,554.799,540.655,561.669,547.839,561.049,550.03,554.178" fill="none" style="stroke:#181818;stroke-width:1;stroke-linejoin:miter;stroke-miterlimit:10;"/></g><!--link Service to CommandQueue--><g class="link" data-entity-1="ent0014" data-entity-2="ent0011" id="lnk23" data-source-line="172" data-link-type="dependency"><path d="M897.93,554.198 C984.15,604.918 1075.27,658.533 1135.58,694.013" style="stroke:#181818;stroke-width:1;" fill="none" id="Service-to-CommandQueue" codeLine="172"/><polygon points="1139.89,696.548,1134.161,688.537,1135.58,694.013,1130.105,695.432,1139.89,696.548" fill="#181818" style="stroke:#181818;stroke-width:1;stroke-linejoin:miter;stroke-miterlimit:10;"/><text x="968.4" y="597.357" fill="#000" font-size="13" textLength="185.212">queues deployments through</text></g><!--link Service to Provisioner--><g class="link" data-entity-1="ent0014" data-entity-2="ent0012" id="lnk24" data-source-line="173" data-link-type="dependency"><path d="M367.81,534.788 C323.78,555.188 281.13,579.628 244,608.788 C210.6,635.018 180.79,666.604 158.02,692.804" style="stroke:#181818;stroke-width:1;" fill="none" id="Service-to-Provisioner" codeLine="173"/><polygon points="154.74,696.578,163.663,692.409,158.02,692.804,157.625,687.161,154.74,696.578" fill="#181818" style="stroke:#181818;stroke-width:1;stroke-linejoin:miter;stroke-miterlimit:10;"/><text x="277.01" y="597.357" fill="#000" font-size="13" textLength="199.132">suspends and resumes through</text></g><!--link Service to DB--><g class="link" data-entity-1="ent0014" data-entity-2="ent0002" id="lnk25" data-source-line="174" data-link-type="dependency"><path d="M1040.46,489.998 C1304.93,530.408 1638.63,584.468 1700,608.788 C1727.58,619.718 1751.086,632.462 1776.376,648.742" style="stroke:#181818;stroke-width:1;" fill="none" id="Service-to-DB" codeLine="174"/><polygon points="1780.58,651.448,1775.178,643.213,1776.376,648.742,1770.847,649.94,1780.58,651.448" fill="#181818" style="stroke:#181818;stroke-width:1;stroke-linejoin:miter;stroke-miterlimit:10;"/><text x="1674.08" y="597.357" fill="#000" font-size="13" textLength="129.556">runs transactions on</text></g><!--link Service to ledgerEntry--><g class="link" data-entity-1="ent0014" data-entity-2="ent0015" id="lnk26" data-source-line="175" data-link-type="dependency"><path d="M661.55,553.988 C650.55,583.498 640.606,610.163 630.146,638.223" style="stroke:#181818;stroke-width:1;stroke-dasharray:7,7;" fill="none" id="Service-to-ledgerEntry" codeLine="175"/><polygon points="628.4,642.908,635.292,635.872,630.146,638.223,627.796,633.078,628.4,642.908" fill="#181818" style="stroke:#181818;stroke-width:1;stroke-linejoin:miter;stroke-miterlimit:10;"/><text x="650.5" y="597.357" fill="#000" font-size="13" textLength="44.929">applies</text></g><!--link ledgerEntry to Transaction--><g class="link" data-entity-1="ent0015" data-entity-2="ent0017" id="lnk27" data-source-line="176" data-link-type="dependency"><path d="M595,823.978 C595,853.328 595,880.828 595,909.838" style="stroke:#181818;stroke-width:1;stroke-dasharray:7,7;" fill="none" id="ledgerEntry-to-Transaction" codeLine="176"/><polygon points="595,914.838,599,905.838,595,909.838,591,905.838,595,914.838" fill="#181818" style="stroke:#181818;stroke-width:1;stroke-linejoin:miter;stroke-miterlimit:10;"/><text x="596" y="873.267" fill="#000" font-size="13" textLength="56.075">becomes</text></g><!--link Transaction to Wallet--><g class="link" data-entity-1="ent0017" data-entity-2="ent0016" id="lnk28" data-source-line="177" data-link-type="dependency"><path d="M595,1086.938 C595,1147.538 595,1221.528 595,1270.038" style="stroke:#181818;stroke-width:1;" fill="none" id="Transaction-to-Wallet" codeLine="177"/><polygon points="595,1275.038,599,1266.038,595,1270.038,591,1266.038,595,1275.038" fill="#181818" style="stroke:#181818;stroke-width:1;stroke-linejoin:miter;stroke-miterlimit:10;"/><text x="596" y="1138.657" fill="#000" font-size="13" textLength="145.495">changes the balance of</text></g><!--reverse link Order to OrderItem--><g class="link" data-entity-1="ent0018" data-entity-2="ent0019" id="lnk29" data-source-line="178" data-link-type="composition"><path d="M1592,529.308 C1592,571.948 1592,612.738 1592,655.368" style="stroke:#181818;stroke-width:1;" fill="none" id="Order-backto-OrderItem" codeLine="178"/><polygon points="1592,517.308,1588,523.308,1592,529.308,1596,523.308,1592,517.308" fill="#181818" style="stroke:#181818;stroke-width:1;stroke-linejoin:miter;stroke-miterlimit:10;"/><text x="1569.018" y="645.057" fill="#000" font-size="13" textLength="22.712">1..*</text></g><!--link OrderItem to Project--><g class="link" data-entity-1="ent0019" data-entity-2="ent0020" id="lnk30" data-source-line="179" data-link-type="association"><path d="M1591.71,811.618 C1591.6,841.308 1591.47,875.528 1591.35,906.588" style="stroke:#181818;stroke-width:1;" fill="none" id="OrderItem-Project" codeLine="179"/><text x="1592.5" y="873.267" fill="#000" font-size="13" textLength="65.038">provisions</text><text x="1583.337" y="831.826" fill="#000" font-size="13">1</text><text x="1566.448" y="896.056" fill="#000" font-size="13" textLength="24.667">0..1</text></g><!--link Project to Command--><g class="link" data-entity-1="ent0020" data-entity-2="ent0004" id="lnk31" data-source-line="180" data-link-type="dependency"><path d="M1683.99,1055.548 C1780.78,1111.408 1927.849,1196.269 2029.579,1254.969" style="stroke:#181818;stroke-width:1;stroke-dasharray:7,7;" fill="none" id="Project-to-Command" codeLine="180"/><polygon points="2033.91,1257.468,2028.114,1249.506,2029.579,1254.969,2024.116,1256.435,2033.91,1257.468" fill="#181818" style="stroke:#181818;stroke-width:1;stroke-linejoin:miter;stroke-miterlimit:10;"/><text x="1834.07" y="1138.657" fill="#000" font-size="13" textLength="76.654">deployed by</text></g><!--link Service to Invoice--><g class="link" data-entity-1="ent0014" data-entity-2="ent0021" id="lnk32" data-source-line="181" data-link-type="dependency"><path d="M746.06,553.988 C756.49,582.208 765.808,607.438 775.818,634.538" style="stroke:#181818;stroke-width:1;stroke-dasharray:7,7;" fill="none" id="Service-to-Invoice" codeLine="181"/><polygon points="777.55,639.228,778.184,629.4,775.818,634.538,770.679,632.172,777.55,639.228" fill="#181818" style="stroke:#181818;stroke-width:1;stroke-linejoin:miter;stroke-miterlimit:10;"/><text x="762.24" y="597.357" fill="#000" font-size="13" textLength="38.949">issues</text></g><!--link Store to CommandQueue--><g class="link" data-entity-1="ent0008" data-entity-2="ent0011" id="lnk33" data-source-line="182" data-link-type="extension"><path d="M2097.06,521.228 C2007.35,552.198 1900.46,584.068 1801,600.788 C1731.29,612.508 1552,593.408 1483,608.788 C1403.68,626.468 1335.003,658.261 1279.403,688.081" style="stroke:#181818;stroke-width:1;stroke-dasharray:7,7;" fill="none" id="Store-to-CommandQueue" codeLine="182"/><polygon points="1263.54,696.588,1282.238,693.368,1276.567,682.793,1263.54,696.588" fill="none" style="stroke:#181818;stroke-width:1;stroke-linejoin:miter;stroke-miterlimit:10;"/></g><!--link Store to DB--><g class="link" data-entity-1="ent0008" data-entity-2="ent0002" id="lnk34" data-source-line="183" data-link-type="dependency"><path d="M2189.56,521.168 C2131.18,561.808 2064.763,608.041 2006.403,648.681" style="stroke:#181818;stroke-width:1;" fill="none" id="Store-to-DB" codeLine="183"/><polygon points="2002.3,651.538,2011.972,649.678,2006.403,648.681,2007.4,643.113,2002.3,651.538" fill="#181818" style="stroke:#181818;stroke-width:1;stroke-linejoin:miter;stroke-miterlimit:10;"/></g><!--link Store to SubmitInput--><g class="link" data-entity-1="ent0008" data-entity-2="ent0006" id="lnk35" data-source-line="184" data-link-type="dependency"><path d="M2271.62,521.168 C2256.14,557.668 2239.722,596.385 2223.662,634.265" style="stroke:#181818;stroke-width:1;stroke-dasharray:7,7;" fill="none" id="Store-to-SubmitInput" codeLine="184"/><polygon points="2221.71,638.868,2228.906,632.144,2223.662,634.265,2221.54,629.021,2221.71,638.868" fill="#181818" style="stroke:#181818;stroke-width:1;stroke-linejoin:miter;stroke-miterlimit:10;"/></g><!--link Store to Submission--><g class="link" data-entity-1="ent0008" data-entity-2="ent0007" id="lnk36" data-source-line="185" data-link-type="dependency"><path d="M2342.04,521.168 C2366.09,575.248 2394.749,639.709 2414.379,683.879" style="stroke:#181818;stroke-width:1;stroke-dasharray:7,7;" fill="none" id="Store-to-Submission" codeLine="185"/><polygon points="2416.41,688.448,2416.41,678.599,2414.379,683.879,2409.1,681.848,2416.41,688.448" fill="#181818" style="stroke:#181818;stroke-width:1;stroke-linejoin:miter;stroke-miterlimit:10;"/></g><!--reverse link Submission to Command--><g class="link" data-entity-1="ent0007" data-entity-2="ent0004" id="lnk37" data-source-line="186" data-link-type="aggregation"><path d="M2408.425,789.162 C2364.575,876.082 2270.72,1062.118 2204.81,1192.788" style="stroke:#181818;stroke-width:1;" fill="none" id="Submission-backto-Command" codeLine="186"/><polygon points="2413.83,778.448,2407.556,782.004,2408.425,789.162,2414.699,785.607,2413.83,778.448" fill="none" style="stroke:#181818;stroke-width:1;stroke-linejoin:miter;stroke-miterlimit:10;"/></g><!--link Worker to Store--><g class="link" data-entity-1="ent0009" data-entity-2="ent0008" id="lnk38" data-source-line="187" data-link-type="dependency"><path d="M2306,226.758 C2306,266.558 2306,310.948 2306,351.968" style="stroke:#181818;stroke-width:1;" fill="none" id="Worker-to-Store" codeLine="187"/><polygon points="2306,356.968,2310,347.968,2306,351.968,2302,347.968,2306,356.968" fill="#181818" style="stroke:#181818;stroke-width:1;stroke-linejoin:miter;stroke-miterlimit:10;"/><text x="2307" y="269.987" fill="#000" font-size="13" textLength="74.452">claims from</text></g><?plantuml-src jHZBRXityBvVGVWakT8s0O8SXC20PJce4CTM9Hav53rGkoE93PVSyE5ew-RVE-HojG-j71Xe3xQNCyDvlsZ330To8xCCL08Zyis21K95IhIHYkw0c287JGOtxmY79-3atOWaCeLX5EclJEHKqOmad6fzROnY6sjWdaYnOdy3UTCWoMdo5TcjJ87o52I6YXs7QCzI893bfY0PP1jGEee2ARbWme0IbF-glt6d3boGvuYKqiXiwW-4Z0c87HD09kJMVmHeBYL7s2LUZcVJ0DH0EIWFXiGgy6pZbOS6aYTKWac1D1eD4ZiF_eLyOMQ_FWmISnYHhI1RAvA1vxq-30ae9LNu4-W_ivsY1jo5DcA1UWs63Rr-H3_wZ4vbHfbeckp2v4Bp73ZDPrqbhnFJepf2fUe2Lw3GqbCMQwfsO4we3Tg2mA22FrRSZN41HAH5tIlhwI70THjnROrSWb45WZVeYHgybugPuZQNoJvSUVykOE_XO0AxQoVeqh0CuZN-2WGVAUCOpHjCpAxc0RMogBYNUiIUyRilWQRRLtQJCJCNkJL7r_zlZfwdQAKq89BY4nHTx88MND8KmN_ykIcE8VZllFsZRRNsbL0PNUNVX9Iv6GT0XLQ0MP6sHQriZlK4APHAdrni27IbUApfT1DgjwpGrnJmdZbWSSSmQaXOUwCAP5N6xgSHt24Pr4QFKDdIzQDGtPMLdB9iPW5BUB24HAfqvEtjaBcq6x3KGv6oRVU8zBB-A5r6U5qqtjL75OOjHtsHwYkwu1WLAcuFw0jVdxuj3Pi1g77XwoEIj71ehIibQKt5eAtjaFXocrdiPqWRxZw8jQ92ir07zQ71Vo4vdxkwUgAk5VUnAQEEuVGVvwiouTAcPLLws9OcK2NaxtveFRyGPL_JSJlM3TZB4VzfM6g55ae-CSUi4P-LrJc8j5G62Vx2uTUU24lGDeCp17NS7tBdDtraF4rKaPiRgJjP3jwSzVhkZCjHd6j9lqchT7dps6ZNzB346fukEl3FJAnb_fWlcGza2qKFvr3tydkTaisMtIXwr8GbTTadPKHrFMfyS7_I56JmpAJoKRK2DC8nQGQdoa-EGNjGAQZI-LQxHZqY7bJbYJzqcu0KMwQonbK5Jmo-EqBfByz6jRooqzUiGen7fDiLMZ8UH83NfLMAwbPdCvLyADh6q4nQWS9OQxAWDfulzOEi8tffnPHnZYbUhY-3S7A9oas7UAwrXRbuaXX7NOhEf31xlCP4ctXCQ9xpebcP7D8Tg5k1C-giIdMwDAZ9XmzMm26N2cVErTKnWqgpsnl4E3YXbPzZWijfsfwmuuwNkbW5Mr28WpLknMUHf-9Jq8bY-UdEW1bVJirfqJ-6lr3EeTux7dkimqv0EKMvFINucAUEkz-Q-YkmuVBsOjcIq2_tqua3SRVmdkvH9IXvlSLcsODUddTj0tcgmwpVjOsswOhkrQQv3TVghXwF-LR9NkjkBFOaV4JTIzEZlUiDIw3wT6MSuzgc_MfKDXqydchle2zOW6rCzAs-rtb-JxCJy3npexMxMM8T1RvltmUOcn2yM2ZMcrgVNP7teslrGwjxjVkFPf-YpbXrRiqERV8KqH_Xbsr-rEYwDIwOtlXUYqCdVBN5zzOzVq_20ef9zznItGeEguwHXl8UJSzDSWVleJx3vGwVqsLs1hFkolUrNzAgsIt7u-FShM3ZyLLxEvkKEvZ6LfXpMMGWyArYzahQtRvrQz6QsRfSdhJ_buJoUrB_jTaKgPN59S3K3KqJN7eggZY-QisFYHz637JKX3ggPal4nmmk-IWrQaATnD2P9oJPKx7pQW7Pb4sEo6rKzfrBTCx5spY-lAXpEggB-kBj1N4KR-8OlwfgcTIRYuugeDEiyGBpRiHNrQPeMLYb7yRHpMMCY5-mu_YVTa02l7JTaUYg-HxgGlrQ6JNUXIxmrKikF4eSlsgbJznBIHFic5dqBm00?></g></svg>