<svg xmlns="http://www.w3.org/2000/svg" xmlns:xlink="http://www.w3.org/1999/xlink" version="1.1" data-diagram-type="GANTT" style="width:690px;height:430px;background:#FFFFFF;" width="690px" height="430px" viewBox="0 0 690 430" zoomAndPan="magnify" preserveAspectRatio="none" contentStyleType="text/css"><?plantuml 1.2026.8?><defs/><g font-family="sans-serif" lengthAdjust="spacing"><g class="title" data-source-line="1"><text x="147.474" y="23.535" fill="#000" font-size="14" textLength="393.784" font-weight="700">Planned schedule (weeks from the start of the project)</text></g><line x1="0" y1="37.488" x2="140.386" y2="37.488" style="stroke:#C0C0C0;stroke-width:1;"/><line x1="0" y1="53.488" x2="140.386" y2="53.488" style="stroke:#C0C0C0;stroke-width:1;"/><line x1="0" y1="421.725" x2="140.386" y2="421.725" style="stroke:#C0C0C0;stroke-width:1;"/><line x1="0" y1="37.488" x2="0" y2="421.725" style="stroke:#C0C0C0;stroke-width:1;"/><line x1="44.048" y1="37.488" x2="44.048" y2="421.725" style="stroke:#C0C0C0;stroke-width:1;"/><line x1="88.096" y1="37.488" x2="88.096" y2="421.725" style="stroke:#C0C0C0;stroke-width:1;"/><line x1="140.386" y1="37.488" x2="140.386" y2="421.725" style="stroke:#C0C0C0;stroke-width:1;"/><text x="5" y="49.268" fill="#000" font-size="10" textLength="22.48">Start</text><text x="49.048" y="49.268" fill="#000" font-size="10" textLength="17.92">End</text><text x="93.096" y="49.268" fill="#000" font-size="10" textLength="42.29">Duration</text><text x="5" y="98.7" fill="#000" font-size="10" textLength="27.725">Day 1</text><text x="49.048" y="98.7" fill="#000" font-size="10" textLength="34.048">Day 14</text><text x="93.096" y="98.7" fill="#000" font-size="10" textLength="37.949">14 days</text><text x="5" y="115.655" fill="#000" font-size="10" textLength="34.048">Day 15</text><text x="49.048" y="115.655" fill="#000" font-size="10" textLength="34.048">Day 28</text><text x="93.096" y="115.655" fill="#000" font-size="10" textLength="37.949">14 days</text><text x="5" y="165.565" fill="#000" font-size="10" textLength="34.048">Day 29</text><text x="49.048" y="165.565" fill="#000" font-size="10" textLength="34.048">Day 35</text><text x="93.096" y="165.565" fill="#000" font-size="10" textLength="31.626">7 days</text><text x="5" y="182.521" fill="#000" font-size="10" textLength="34.048">Day 36</text><text x="49.048" y="182.521" fill="#000" font-size="10" textLength="34.048">Day 56</text><text x="93.096" y="182.521" fill="#000" font-size="10" textLength="37.949">21 days</text><text x="5" y="232.431" fill="#000" font-size="10" textLength="34.048">Day 36</text><text x="49.048" y="232.431" fill="#000" font-size="10" textLength="34.048">Day 49</text><text x="93.096" y="232.431" fill="#000" font-size="10" textLength="37.949">14 days</text><text x="5" y="249.386" fill="#000" font-size="10" textLength="34.048">Day 50</text><text x="49.048" y="249.386" fill="#000" font-size="10" textLength="34.048">Day 63</text><text x="93.096" y="249.386" fill="#000" font-size="10" textLength="37.949">14 days</text><text x="5" y="299.296" fill="#000" font-size="10" textLength="34.048">Day 64</text><text x="49.048" y="299.296" fill="#000" font-size="10" textLength="34.048">Day 77</text><text x="93.096" y="299.296" fill="#000" font-size="10" textLength="37.949">14 days</text><text x="5" y="316.251" fill="#000" font-size="10" textLength="34.048">Day 64</text><text x="49.048" y="316.251" fill="#000" font-size="10" textLength="34.048">Day 77</text><text x="93.096" y="316.251" fill="#000" font-size="10" textLength="37.949">14 days</text><text x="5" y="366.161" fill="#000" font-size="10" textLength="34.048">Day 57</text><text x="49.048" y="366.161" fill="#000" font-size="10" textLength="34.048">Day 70</text><text x="93.096" y="366.161" fill="#000" font-size="10" textLength="37.949">14 days</text><text x="5" y="383.116" fill="#000" font-size="10" textLength="34.048">Day 78</text><text x="49.048" y="383.116" fill="#000" font-size="10" textLength="34.048">Day 84</text><text x="93.096" y="383.116" fill="#000" font-size="10" textLength="31.626">7 days</text><text x="5" y="400.071" fill="#000" font-size="10" textLength="34.048">Day 85</text><text x="49.048" y="400.071" fill="#000" font-size="10" textLength="34.048">Day 98</text><text x="93.096" y="400.071" fill="#000" font-size="10" textLength="37.949">14 days</text><text x="5" y="417.026" fill="#000" font-size="10" textLength="34.048">Day 98</text><text x="49.048" y="417.026" fill="#000" font-size="10" textLength="34.048">Day 98</text><text x="93.096" y="417.026" fill="#000" font-size="10" textLength="26.528">1 day</text><line x1="140.386" y1="43.488" x2="140.386" y2="429.725" style="stroke:#C0C0C0;stroke-width:1;"/><line x1="168.386" y1="43.488" x2="168.386" y2="429.725" style="stroke:#C0C0C0;stroke-width:1;"/><line x1="196.386" y1="43.488" x2="196.386" y2="429.725" style="stroke:#C0C0C0;stroke-width:1;"/><line x1="224.386" y1="43.488" x2="224.386" y2="429.725" style="stroke:#C0C0C0;stroke-width:1;"/><line x1="252.386" y1="43.488" x2="252.386" y2="429.725" style="stroke:#C0C0C0;stroke-width:1;"/><line x1="280.386" y1="43.488" x2="280.386" y2="429.725" style="stroke:#C0C0C0;stroke-width:1;"/><line x1="308.386" y1="43.488" x2="308.386" y2="429.725" style="stroke:#C0C0C0;stroke-width:1;"/><line x1="336.386" y1="43.488" x2="336.386" y2="429.725" style="stroke:#C0C0C0;stroke-width:1;"/><line x1="364.386" y1="43.488" x2="364.386" y2="429.725" style="stroke:#C0C0C0;stroke-width:1;"/><line x1="392.386" y1="43.488" x2="392.386" y2="429.725" style="stroke:#C0C0C0;stroke-width:1;"/><line x1="420.386" y1="43.488" x2="420.386" y2="429.725" style="stroke:#C0C0C0;stroke-width:1;"/><line x1="448.386" y1="43.488" x2="448.386" y2="429.725" style="stroke:#C0C0C0;stroke-width:1;"/><line x1="476.386" y1="43.488" x2="476.386" y2="429.725" style="stroke:#C0C0C0;stroke-width:1;"/><line x1="504.386" y1="43.488" x2="504.386" y2="429.725" style="stroke:#C0C0C0;stroke-width:1;"/><line x1="532.386" y1="43.488" x2="532.386" y2="429.725" style="stroke:#C0C0C0;stroke-width:1;"/><text x="151.224" y="47.156" fill="#000" font-size="10">1</text><text x="179.224" y="47.156" fill="#000" font-size="10">2</text><text x="207.224" y="47.156" fill="#000" font-size="10">3</text><text x="235.224" y="47.156" fill="#000" font-size="10">4</text><text x="263.224" y="47.156" fill="#000" font-size="10">5</text><text x="291.224" y="47.156" fill="#000" font-size="10">6</text><text x="319.224" y="47.156" fill="#000" font-size="10">7</text><text x="347.224" y="47.156" fill="#000" font-size="10">8</text><text x="375.224" y="47.156" fill="#000" font-size="10">9</text><text x="400.063" y="47.156" fill="#000" font-size="10" textLength="12.646">10</text><text x="428.063" y="47.156" fill="#000" font-size="10" textLength="12.646">11</text><text x="456.063" y="47.156" fill="#000" font-size="10" textLength="12.646">12</text><text x="484.063" y="47.156" fill="#000" font-size="10" textLength="12.646">13</text><text x="512.063" y="47.156" fill="#000" font-size="10" textLength="12.646">14</text><path d="M188.386,101.398 L188.386,111.876 L193.386,111.876" style="stroke:#181818;stroke-width:1.5;" fill="none"/><polygon points="192.386,107.876,196.386,111.876,192.386,115.876,192.386,107.876" fill="#181818" style="stroke:#181818;stroke-width:1;stroke-linejoin:miter;stroke-miterlimit:10;"/><path d="M244.386,118.354 L244.386,161.786 L249.386,161.786" style="stroke:#181818;stroke-width:1.5;" fill="none"/><polygon points="248.386,157.786,252.386,161.786,248.386,165.786,248.386,157.786" fill="#181818" style="stroke:#181818;stroke-width:1;stroke-linejoin:miter;stroke-miterlimit:10;"/><path d="M272.386,168.264 L272.386,178.741 L277.386,178.741" style="stroke:#181818;stroke-width:1.5;" fill="none"/><polygon points="276.386,174.741,280.386,178.741,276.386,182.741,276.386,174.741" fill="#181818" style="stroke:#181818;stroke-width:1;stroke-linejoin:miter;stroke-miterlimit:10;"/><path d="M272.386,168.264 L272.386,228.651 L277.386,228.651" style="stroke:#181818;stroke-width:1.5;" fill="none"/><polygon points="276.386,224.651,280.386,228.651,276.386,232.651,276.386,224.651" fill="#181818" style="stroke:#181818;stroke-width:1;stroke-linejoin:miter;stroke-miterlimit:10;"/><path d="M328.386,235.129 L328.386,245.606 L333.386,245.606" style="stroke:#181818;stroke-width:1.5;" fill="none"/><polygon points="332.386,241.606,336.386,245.606,332.386,249.606,332.386,241.606" fill="#181818" style="stroke:#181818;stroke-width:1;stroke-linejoin:miter;stroke-miterlimit:10;"/><path d="M384.386,252.084 L384.386,295.517 L389.386,295.517" style="stroke:#181818;stroke-width:1.5;" fill="none"/><polygon points="388.386,291.517,392.386,295.517,388.386,299.517,388.386,291.517" fill="#181818" style="stroke:#181818;stroke-width:1;stroke-linejoin:miter;stroke-miterlimit:10;"/><path d="M384.386,252.084 L384.386,312.472 L389.386,312.472" style="stroke:#181818;stroke-width:1.5;" fill="none"/><polygon points="388.386,308.472,392.386,312.472,388.386,316.472,388.386,308.472" fill="#181818" style="stroke:#181818;stroke-width:1;stroke-linejoin:miter;stroke-miterlimit:10;"/><path d="M356.386,185.219 L356.386,362.382 L361.386,362.382" style="stroke:#181818;stroke-width:1.5;" fill="none"/><polygon points="360.386,358.382,364.386,362.382,360.386,366.382,360.386,358.382" fill="#181818" style="stroke:#181818;stroke-width:1;stroke-linejoin:miter;stroke-miterlimit:10;"/><path d="M440.386,301.994 L440.386,379.337 L445.386,379.337" style="stroke:#181818;stroke-width:1.5;" fill="none"/><polygon points="444.386,375.337,448.386,379.337,444.386,383.337,444.386,375.337" fill="#181818" style="stroke:#181818;stroke-width:1;stroke-linejoin:miter;stroke-miterlimit:10;"/><path d="M468.386,385.814 L468.386,396.292 L473.386,396.292" style="stroke:#181818;stroke-width:1.5;" fill="none"/><polygon points="472.386,392.292,476.386,396.292,472.386,400.292,472.386,392.292" fill="#181818" style="stroke:#181818;stroke-width:1;stroke-linejoin:miter;stroke-miterlimit:10;"/><line x1="140.386" y1="69.966" x2="145.386" y2="69.966" style="stroke:#181818;stroke-width:1;"/><line x1="199.198" y1="69.966" x2="531.386" y2="69.966" style="stroke:#181818;stroke-width:1;"/><rect x="142.386" y="88.443" width="52" height="12.955" fill="#E2E2F0" style="stroke:none;"/><rect x="142.386" y="88.443" width="52" height="12.955" fill="none" style="stroke:#181818;stroke-width:1;"/><rect x="198.386" y="105.398" width="52" height="12.955" fill="#E2E2F0" style="stroke:none;"/><rect x="198.386" y="105.398" width="52" height="12.955" fill="none" style="stroke:#181818;stroke-width:1;"/><line x1="140.386" y1="136.831" x2="145.386" y2="136.831" style="stroke:#181818;stroke-width:1;"/><line x1="237.531" y1="136.831" x2="531.386" y2="136.831" style="stroke:#181818;stroke-width:1;"/><rect x="254.386" y="155.309" width="24" height="12.955" fill="#E2E2F0" style="stroke:none;"/><rect x="254.386" y="155.309" width="24" height="12.955" fill="none" style="stroke:#181818;stroke-width:1;"/><rect x="282.386" y="172.264" width="80" height="12.955" fill="#E2E2F0" style="stroke:none;"/><rect x="282.386" y="172.264" width="80" height="12.955" fill="none" style="stroke:#181818;stroke-width:1;"/><line x1="140.386" y1="203.696" x2="145.386" y2="203.696" style="stroke:#181818;stroke-width:1;"/><line x1="212.685" y1="203.696" x2="531.386" y2="203.696" style="stroke:#181818;stroke-width:1;"/><rect x="282.386" y="222.174" width="52" height="12.955" fill="#E2E2F0" style="stroke:none;"/><rect x="282.386" y="222.174" width="52" height="12.955" fill="none" style="stroke:#181818;stroke-width:1;"/><rect x="338.386" y="239.129" width="52" height="12.955" fill="#E2E2F0" style="stroke:none;"/><rect x="338.386" y="239.129" width="52" height="12.955" fill="none" style="stroke:#181818;stroke-width:1;"/><line x1="140.386" y1="270.562" x2="145.386" y2="270.562" style="stroke:#181818;stroke-width:1;"/><line x1="212.448" y1="270.562" x2="531.386" y2="270.562" style="stroke:#181818;stroke-width:1;"/><rect x="394.386" y="289.039" width="52" height="12.955" fill="#E2E2F0" style="stroke:none;"/><rect x="394.386" y="289.039" width="52" height="12.955" fill="none" style="stroke:#181818;stroke-width:1;"/><rect x="394.386" y="305.994" width="52" height="12.955" fill="#E2E2F0" style="stroke:none;"/><rect x="394.386" y="305.994" width="52" height="12.955" fill="none" style="stroke:#181818;stroke-width:1;"/><line x1="140.386" y1="337.427" x2="145.386" y2="337.427" style="stroke:#181818;stroke-width:1;"/><line x1="323.415" y1="337.427" x2="531.386" y2="337.427" style="stroke:#181818;stroke-width:1;"/><rect x="366.386" y="355.904" width="52" height="12.955" fill="#E2E2F0" style="stroke:none;"/><rect x="366.386" y="355.904" width="52" height="12.955" fill="none" style="stroke:#181818;stroke-width:1;"/><rect x="450.386" y="372.859" width="24" height="12.955" fill="#E2E2F0" style="stroke:none;"/><rect x="450.386" y="372.859" width="24" height="12.955" fill="none" style="stroke:#181818;stroke-width:1;"/><rect x="478.386" y="389.814" width="52" height="12.955" fill="#E2E2F0" style="stroke:none;"/><rect x="478.386" y="389.814" width="52" height="12.955" fill="none" style="stroke:#181818;stroke-width:1;"/><polygon points="530.386,406.77,535.386,411.77,530.386,416.77,525.386,411.77" fill="#000" style="stroke:#000;stroke-width:1;stroke-linejoin:miter;stroke-miterlimit:10;"/><text x="150.386" y="74.123" fill="#000" font-size="11" textLength="43.812">Analysis</text><text x="198.386" y="99.078" fill="#000" font-size="11" textLength="170.591">Requirements and market study</text><text x="254.386" y="116.033" fill="#000" font-size="11" textLength="151.889">Architecture and data model</text><text x="150.386" y="140.988" fill="#000" font-size="11" textLength="82.146">SQL foundation</text><text x="282.386" y="165.943" fill="#000" font-size="11" textLength="224.367">Connection pool, transactions, migrations</text><text x="366.386" y="182.898" fill="#000" font-size="11" textLength="183.546">Move every controller store to SQL</text><text x="150.386" y="207.854" fill="#000" font-size="11" textLength="57.299">Commerce</text><text x="338.386" y="232.809" fill="#000" font-size="11" textLength="202.737">Accounts, catalogue and wallet ledger</text><text x="394.386" y="249.764" fill="#000" font-size="11" textLength="219.538">Orders, provisioning, billing and invoices</text><text x="150.386" y="274.719" fill="#000" font-size="11" textLength="57.063">Front ends</text><text x="450.386" y="299.674" fill="#000" font-size="11" textLength="167.927">Storefront (English and Persian)</text><text x="450.386" y="316.629" fill="#000" font-size="11" textLength="135.797">Administration Sales area</text><text x="150.386" y="341.584" fill="#000" font-size="11" textLength="168.029">Verification and documentation</text><text x="422.386" y="366.539" fill="#000" font-size="11" textLength="214.607">Automated tests on MariaDB and MySQL</text><text x="478.386" y="383.494" fill="#000" font-size="11" textLength="125.984">End-to-end verification</text><text x="534.386" y="400.449" fill="#000" font-size="11" textLength="135.346">Academic documentation</text><text x="538.386" y="417.404" fill="#000" font-size="11" textLength="61.102">Submission</text><?plantuml-src TLJDZfim4Bxp57FhhhIi6Y9LFIuXzDIesqRg1Ut1iIVWhh6fFMIRj-zWI1CgzeBmQERxyy1J8E6f5fO8Ekyw5uH9WsnGzGOJqcGGdesm5XLSod3tXlWQuEXT2zGWH0nmntXWb5yewJxflBOKfE21eT-SaqOhXADpT71_aYHD8RV2d8CEaAP9zGD_zzfZYpm5mYfeXNz5OlHUdLz01AZorGluiIr05c53KkLUDfgOi_SO1vKW0QrJQAQnR76Cgr4vir74_X00hOhAzj-_ijBUCfHsDkeh7ASWux5ppZm0UM63Y9Nm0AskVMmE8-dcLkigaYQnUCkPNJYhdJiXu0dz6QIpv9qnwBdNiIToWvu9zjRB-k9bC_UocNafNDkYbnXTv5AoBMB1abCohkx7pDu44n8OL3NwaQfOJBjOlKDLVVCAFGFp1fnqu2IqhH_We8tXbqYYxSbfYLD2nUAr57ChnSpA5y_P3ATnPVP3FCTOkojjRNHe8iypwz32teyysqKVsxcFudeLkMgrrO76wuGzRp3tU1GJtABiRVOEt23x9tfzr7B4YnlgP3yi-dMxyfvSAuW_CyB085pU2Q_5TXC7TkT_6r0ksYd_kvQhdTAgb5pAxt2wqJ61PGjRMiwzRAzNd4kXiDLoRc22MY_gMi-mocikrRu_j3g42D28haCxzQmlFK_yYF-c95azPX-pJu-V_m80?></g></svg>